<svg xmlns="http://www.w3.org/2000/svg" viewBox="0 0 100 75">
    <style>.bone{fill:white;}</style>
    <polygon class="bone" points="27.22 12.09 31.46 9.65 31.27 5.79 27.12 4.11 24.63 7.33 22.71 3.36 18.45 3.68 17.3 8.09 22.14 10.96 22.53 65.93 18.42 67.85 17.54 71.72 19.83 74.09 24.48 72.3 27.31 74.93 31.85 73.4 32.06 69.15 27.88 66.67 27.22 12.09"/>
    <polygon class="bone" points="8.97 10.29 13.71 8.09 13.4 4.23 9.91 3.08 6.34 5.52 3.64 2.63 1.06 3.45 0.03 7.36 3.75 11.15 4.61 66.51 0 69.03 0.55 72.61 2.88 74.36 6.76 72.17 10.58 74.54 13.48 73.01 13.78 69.78 9.78 67.42 8.97 10.29"/>
    <polygon class="bone" points="97.97 61.93 91.74 62.11 66.27 31.82 87.97 12.24 94.38 11.99 96.61 8.4 93.57 5.41 89.59 7.17 90.81 2.71 88.05 0 84.11 1.92 84.64 8.22 45.3 43.66 45.11 10.19 49.46 6.69 48.34 2.8 45.04 1.4 42.01 4.54 38.34 3.22 35.49 4.76 35.13 8.78 39.78 10.34 40.23 66.4 36.15 69.91 36.25 73.67 40.25 75 43.35 71.9 47.27 73.88 50.1 72.34 50.18 68.88 45.43 66.38 45.34 50.69 62.39 35.31 87.77 65.47 86.57 70.42 88.84 73.23 92.74 72.12 93.86 67.78 97.38 68.88 100 66.42 97.97 61.93"/>
</svg>